<svg xmlns="http://www.w3.org/2000/svg" viewBox="0 0 32 32" width="32" height="32">
  <!-- Background circle -->
  <circle cx="16" cy="16" r="15" fill="#2563eb" stroke="#1d4ed8" stroke-width="1"/>
  
  <!-- Shield base -->
  <path d="M16 6 L22 8 L22 14 C22 18 19 22 16 24 C13 22 10 18 10 14 L10 8 Z" fill="#ffffff" stroke="#1d4ed8" stroke-width="0.5"/>
  
  <!-- Shield accent -->
  <path d="M16 8 L20 9.5 L20 14 C20 17 17.5 20 16 21.5 C14.5 20 12 17 12 14 L12 9.5 Z" fill="#dbeafe"/>
  
  <!-- Gear -->
  <circle cx="16" cy="16" r="3" fill="#1d4ed8"/>
  <circle cx="16" cy="16" r="1.5" fill="#ffffff"/>
  
  <!-- Gear teeth -->
  <rect x="15.5" y="11" width="1" height="2" fill="#1d4ed8"/>
  <rect x="15.5" y="19" width="1" height="2" fill="#1d4ed8"/>
  <rect x="11" y="15.5" width="2" height="1" fill="#1d4ed8"/>
  <rect x="19" y="15.5" width="2" height="1" fill="#1d4ed8"/>
  
  <!-- Diagonal gear teeth -->
  <rect x="12.5" y="12.5" width="1" height="1" fill="#1d4ed8" transform="rotate(45 13 13)"/>
  <rect x="18.5" y="18.5" width="1" height="1" fill="#1d4ed8" transform="rotate(45 19 19)"/>
  <rect x="18.5" y="12.5" width="1" height="1" fill="#1d4ed8" transform="rotate(-45 19 13)"/>
  <rect x="12.5" y="18.5" width="1" height="1" fill="#1d4ed8" transform="rotate(-45 13 19)"/>
</svg> 